# xmcd
#
# Track frame offsets: 
#        150
#        17877
#        38234
#        45749
#        56507
#        70859
#        79031
#        88511
#        93371
#        98093
#        119113
#        136815
#        159814
#        171818
#        182750
#        188950
#        196444
#        212741
#        222773
#        230855
#        242154
#        249811
#        261363
#        270883
#        290665
#
# Disc length: 4406 seconds
#
# Revision: 4
# Processed by: cddbd v1.5.2PL0 Copyright (c) Steve Scherf et al.
# Submitted via: ExactAudioCopy v1.0b3
#
DISCID=64113419
DTITLE=Frédéric Chopin - Collection Historique - Moritz Rosenthal - Vl
DTITLE=adimir Horowitz
DYEAR=1937
DGENRE=Romantique
TTITLE0=Grande Valse nouvelle en la bémol majeur op. 42 (Moritz Rosent
TTITLE0=hal 1934-1937)
TTITLE1=Nocturne en mi bémol majeur op. 9 n° 2 (Moritz Rosenthal 1934-
TTITLE1=1937)
TTITLE2=Étude en fa mineur op. 25 n° 2 - presto (Moritz Rosenthal 1934
TTITLE2=1937)
TTITLE3=Trois nouvelles études – n° 2 en la bémol majeur - allegretto 
TTITLE3=(Moritz Rosenthal 1934-1937)
TTITLE4=Mazurka op. 50 n° 2 en la bémol majeur (Moritz Rosenthal 1934-
TTITLE4=1937)
TTITLE5=Étude en sol bémol majeur op. 10 n° 5 - vivace (Moritz Rosenth
TTITLE5=al 1934-1937)
TTITLE6=Prélude en si mineur op. 28 n° 6 - Lento assai (Moritz Rosenth
TTITLE6=al 1934-1937)
TTITLE7=Prélude en sol majeur op. 28 n° 3 - Vivace (Moritz Rosenthal 1
TTITLE7=934-1937)
TTITLE8=Prélude en la majeur op. 28 n° 7 - Andantino (Moritz Rosenthal
TTITLE8=1934-1937)
TTITLE9=Mazurka op. 33 n° 4 en si mineur (Moritz Rosenthal 1934-1937)
TTITLE10=Valse en ut dièse mineur op. 64 n° 2 (Moritz Rosenthal 1934-1
TTITLE10=937)
TTITLE11=Nocturne en ré bémol majeur op. 27 n° 2 (Moritz Rosenthal 193
TTITLE11=4-1937)
TTITLE12=Mazurka op. 33 n° 2 en ré majeur (Moritz Rosenthal 1934-1937)
TTITLE13=Mazurka op. 63 n° 1 en si majeur (Moritz Rosenthal 1934-1937)
TTITLE14=Mazurka n° 44 op. posthume 67 n° 1 - Vivace (Moritz Rosenthal
TTITLE14=1934-1937)
TTITLE15=Mazurka op. 24 n° 3 en la bémol majeur (Moritz Rosenthal 1934
TTITLE15=1937)
TTITLE16=Prélude en fa dièse majeur op. 28 n° 13 - Lento (Moritz Rosen
TTITLE16=thal 1934-1937)
TTITLE17=Étude en ut dièse mineur op. 10 n° 4 - presto (Vladimir Horow
TTITLE17=itz 1930-1936)
TTITLE18=Étude en sol bémol majeur op. 10 n° 5 - vivace (Vladimir Horo
TTITLE18=witz 1930-1936)
TTITLE19=Étude en fa majeur op. 10 n° 8 - andante (Vladimir Horowitz 1
TTITLE19=930-1936)
TTITLE20=Étude en fa majeur op. 25 n° 3 - allegro (Vladimir Horowitz 1
TTITLE20=930-1936)
TTITLE21=Mazurka op. 7 n° 3 en fa mineur (Vladimir Horowitz 1930-1936)
TTITLE22=Mazurka op. 41 n° 2 en mi mineur (Vladimir Horowitz 1930-1936
TTITLE22=)
TTITLE23=Mazurka op. 50 n° 3 en ut dièse mineur (Vladimir Horowitz 193
TTITLE23=0-1936)
TTITLE24=Scherzo n° 4 en mi majeur op. 54 (Vladimir Horowitz 1930-1936
TTITLE24=)
EXTD=
EXTT0=
EXTT1=
EXTT2=
EXTT3=
EXTT4=
EXTT5=
EXTT6=
EXTT7=
EXTT8=
EXTT9=
EXTT10=
EXTT11=
EXTT12=
EXTT13=
EXTT14=
EXTT15=
EXTT16=
EXTT17=
EXTT18=
EXTT19=
EXTT20=
EXTT21=
EXTT22=
EXTT23=
EXTT24=
PLAYORDER=
